<svg width="100" height="40" viewBox="0 0 100 40" fill="none" xmlns="http://www.w3.org/2000/svg">
<g clip-path="url(#clip0_7118_2)">
<path d="M96.8373 31.0871V7.94263H99.1256V31.0871H96.8373Z" fill="#363636"/>
<path d="M84.2093 31.4141C82.7491 31.4141 81.4415 31.0654 80.2865 30.368C79.1315 29.6488 78.2161 28.6899 77.5405 27.4913C76.8867 26.2926 76.5598 24.9415 76.5598 23.4377C76.5598 21.9122 76.8867 20.5501 77.5405 19.3515C78.2161 18.1311 79.1315 17.1721 80.2865 16.4748C81.4415 15.7556 82.7382 15.396 84.1766 15.396C85.3534 15.396 86.3995 15.6357 87.3148 16.1152C88.2519 16.5728 89.0038 17.2266 89.5704 18.0766C90.1589 18.9047 90.5185 19.8745 90.6492 20.986V25.7914C90.5185 26.9029 90.1589 27.8836 89.5704 28.7335C89.0038 29.5834 88.2519 30.2481 87.3148 30.7276C86.3995 31.1852 85.3643 31.4141 84.2093 31.4141ZM84.5689 29.2238C86.1598 29.2238 87.4347 28.6899 88.3936 27.622C89.3743 26.5542 89.8647 25.1485 89.8647 23.405C89.8647 22.25 89.6358 21.2366 89.1782 20.3649C88.7423 19.4713 88.1212 18.7849 87.3148 18.3054C86.5303 17.8042 85.6041 17.5535 84.5362 17.5535C83.4465 17.5535 82.4767 17.8042 81.6268 18.3054C80.7986 18.8066 80.1339 19.504 79.6327 20.3976C79.1532 21.2693 78.9135 22.2718 78.9135 23.405C78.9135 24.5383 79.1532 25.5408 79.6327 26.4125C80.1339 27.2842 80.8095 27.9707 81.6595 28.472C82.5094 28.9732 83.4792 29.2238 84.5689 29.2238ZM89.7339 31.0872V26.9682L90.1916 23.1762L89.7339 19.4822V15.7229H92.0222V31.0872H89.7339Z" fill="#363636"/>
<path d="M64.9478 31.0872V15.7229H67.2361V31.0872H64.9478ZM67.2361 22.1301L66.2881 21.7052C66.2881 19.7656 66.7567 18.2291 67.6938 17.0959C68.6527 15.9626 69.9603 15.396 71.6166 15.396C72.3793 15.396 73.0767 15.5377 73.7087 15.821C74.3407 16.0825 74.9291 16.5075 75.474 17.0959L73.9702 18.6977C73.5998 18.2836 73.1857 17.9894 72.728 17.8151C72.2922 17.6407 71.7909 17.5535 71.2243 17.5535C70.0474 17.5535 69.0885 17.9458 68.3476 18.7304C67.6066 19.4931 67.2361 20.6264 67.2361 22.1301Z" fill="#363636"/>
<path d="M53.4066 31.0871L46.3128 15.7228H48.8627L54.8449 29.1583H53.4066L59.4215 15.7228H61.9059L54.7468 31.0871H53.4066Z" fill="#363636"/>
<path d="M37.1276 31.414C35.8854 31.414 34.774 31.1306 33.7933 30.564C32.8126 29.9756 32.0389 29.1801 31.4723 28.1777C30.9274 27.1752 30.655 25.9983 30.655 24.6471V15.7228H32.976V24.5491C32.976 25.4862 33.1395 26.3034 33.4664 27.0008C33.8151 27.6982 34.3054 28.243 34.9374 28.6353C35.5694 29.0276 36.2995 29.2237 37.1276 29.2237C38.4134 29.2237 39.4268 28.7988 40.1678 27.9488C40.9306 27.0989 41.312 25.9656 41.312 24.5491V15.7228H43.6002V24.6471C43.6002 25.9765 43.3278 27.1534 42.783 28.1777C42.2382 29.2019 41.4754 29.9974 40.4947 30.564C39.514 31.1306 38.3916 31.414 37.1276 31.414Z" fill="#363636"/>
<path d="M7.76605 31.0871L16.9846 8.59644H18.7826L27.9031 31.0871H25.3206L17.3769 11.2116H18.3249L10.3159 31.0871H7.76605ZM11.9831 25.2356V23.1108H23.7514V25.2356H11.9831Z" fill="#363636"/>
<path d="M61.4756 10.1655C61.4756 10.8877 60.8901 11.4731 60.168 11.4731C59.4458 11.4731 58.8604 10.8877 58.8604 10.1655V2.97372H27.1511C26.4289 2.97372 25.8435 2.38829 25.8435 1.66612C25.8435 0.943952 26.4289 0.358521 27.1511 0.358521H59.5142C60.5974 0.358521 61.4756 1.23667 61.4756 2.31992V10.1655Z" fill="url(#paint0_linear_7118_2)"/>
<path d="M0.672313 31.087C0.672313 30.3649 1.25774 29.7794 1.97991 29.7794C2.70208 29.7794 3.28751 30.3649 3.28751 31.087L3.28751 36.9712L10.4793 36.9712C11.2015 36.9712 11.7869 37.5567 11.7869 38.2788C11.7869 39.001 11.2015 39.5864 10.4793 39.5864L2.63371 39.5864C1.55046 39.5864 0.672312 38.7083 0.672312 37.625L0.672313 31.087Z" fill="url(#paint1_linear_7118_2)"/>
<path d="M25.5166 39.5865C24.7944 39.5865 24.209 39.001 24.209 38.2789C24.209 37.5567 24.7944 36.9713 25.5166 36.9713L58.8603 36.9713L58.8603 34.3561C58.8603 33.6339 59.4458 33.0485 60.1679 33.0485C60.8901 33.0485 61.4755 33.6339 61.4755 34.3561L61.4755 37.6251C61.4755 38.7083 60.5974 39.5865 59.5141 39.5865L25.5166 39.5865Z" fill="url(#paint2_linear_7118_2)"/>
<path d="M10.4793 0.358492C11.2014 0.358494 11.7869 0.943926 11.7869 1.66609C11.7869 2.38826 11.2014 2.97369 10.4793 2.97369L3.28747 2.97369L3.28747 21.9339C3.28747 22.656 2.70204 23.2415 1.97987 23.2415C1.2577 23.2415 0.672272 22.656 0.672272 21.9339L0.672274 2.31989C0.672275 1.23664 1.55042 0.358491 2.63367 0.358491L10.4793 0.358492Z" fill="url(#paint3_linear_7118_2)"/>
</g>
<defs>
<linearGradient id="paint0_linear_7118_2" x1="43.6595" y1="1.66612" x2="43.6595" y2="10.1655" gradientUnits="userSpaceOnUse">
<stop stop-color="#375A9F"/>
<stop offset="1" stop-color="#D87474"/>
</linearGradient>
<linearGradient id="paint1_linear_7118_2" x1="6.2296" y1="38.2788" x2="6.2296" y2="31.087" gradientUnits="userSpaceOnUse">
<stop stop-color="#375A9F"/>
<stop offset="1" stop-color="#D87474"/>
</linearGradient>
<linearGradient id="paint2_linear_7118_2" x1="60.1679" y1="36.3175" x2="25.5166" y2="36.3175" gradientUnits="userSpaceOnUse">
<stop stop-color="#375A9F"/>
<stop offset="1" stop-color="#D87474"/>
</linearGradient>
<linearGradient id="paint3_linear_7118_2" x1="1.97987" y1="11.8" x2="10.4793" y2="11.8" gradientUnits="userSpaceOnUse">
<stop stop-color="#375A9F"/>
<stop offset="1" stop-color="#D87474"/>
</linearGradient>
<clipPath id="clip0_7118_2">
<rect width="99.6078" height="40" fill="white"/>
</clipPath>
</defs>
</svg>
