<svg width="283" height="283" viewBox="0 0 283 283" fill="none" xmlns="http://www.w3.org/2000/svg">
<g clip-path="url(#clip0_4258_9063)">
<rect width="283" height="283" fill="#41AAE6" fill-opacity="0.2"/>
<path d="M46.0469 292.94L29.7664 328.868L0.000976562 394.56V278.365L46.0469 292.94Z" fill="#EFB3B8"/>
<path d="M227.272 192.66C227.272 258.721 181.634 248.73 125.329 248.73C69.0251 248.73 23.387 258.721 23.387 192.66C23.387 126.6 45.6806 9.5 125.329 9.5C207.723 9.5 227.272 126.598 227.272 192.66Z" fill="#0F0102"/>
<path d="M99.0107 176.232C99.0107 176.232 123.166 210.142 114.536 219.322C105.906 228.503 179.257 228.732 179.257 228.732C179.257 228.732 168.239 179.404 171.482 168.052L99.0107 176.232Z" fill="#EFB3B8"/>
<path d="M282.994 312.685C281.205 306.871 278.173 297.044 274.694 286.092C268.573 266.793 261.083 243.946 256.64 233.059C248.157 212.28 204.935 220.608 204.935 220.608L56.8497 215.061C56.8497 215.061 51.3302 214.334 26.4946 211.036C16.0835 209.652 7.01411 224.244 0 241.668V296.517L34.5029 299.144C31.7277 308.824 30.1368 318.805 29.7653 328.868C29.3737 342.632 31.8057 358.018 42.3002 367.565C64.9263 388.186 72.2023 481.033 72.2023 481.033L56.2855 541.848H242.124C247.49 541.849 257.522 541.848 257.522 541.848H270.571H282.984C282.984 541.848 282.985 506.349 282.984 500.982V478.462C271.259 459.485 261.631 449.941 261.631 449.941L228.397 319.183L279.291 318.303L282.999 318.233L282.994 312.685Z" fill="#4065AF"/>
<path d="M178.154 162.567C204.854 135.868 204.854 92.5794 178.154 65.8798C151.455 39.1803 108.166 39.1803 81.4666 65.8798C54.7671 92.5794 54.7671 135.868 81.4666 162.567C108.166 189.267 151.455 189.267 178.154 162.567Z" fill="#EFB3B8"/>
<path d="M46.0017 97.4032H73.0433L84.9767 63.9999L87.3622 97.4032H100.287L107.246 77.918L108.636 97.4032H204.672C204.672 78.2082 197.047 59.7993 183.474 46.2264C169.901 32.6535 151.492 25.0283 132.297 25.0283H118.377C99.1818 25.0283 80.7731 32.6533 67.2002 46.226C53.6274 59.7987 46.002 78.2084 46.0017 97.4032Z" fill="#0F0102"/>
<path d="M193 87.9874C193 90.0178 191.358 91.6638 189.333 91.6638C187.308 91.6638 185.667 90.0178 185.667 87.9874V64.3529H155.811C153.787 64.3529 152.145 62.7069 152.145 60.6765C152.145 58.646 153.787 57 155.811 57H187.238C190.42 57 193 59.5866 193 62.7773V87.9874Z" fill="url(#paint0_linear_4258_9063)"/>
<path d="M68 146.81C68 144.78 69.6415 143.134 71.6664 143.134C73.6913 143.134 75.3329 144.78 75.3329 146.81L75.3329 174.647L105.188 174.647C107.213 174.647 108.855 176.293 108.855 178.323C108.855 180.353 107.213 182 105.188 182L73.7615 182C70.5795 182 67.9999 179.413 67.9999 176.222L68 146.81Z" fill="url(#paint1_linear_4258_9063)"/>
<path d="M156.859 182C154.834 182 153.193 180.354 153.193 178.324C153.193 176.293 154.834 174.647 156.859 174.647L185.667 174.647L185.667 116.349C185.667 114.318 187.308 112.672 189.333 112.672C191.358 112.672 193 114.318 193 116.349L193 176.223C193 179.413 190.42 182 187.238 182L156.859 182Z" fill="url(#paint2_linear_4258_9063)"/>
<path d="M105.188 57.0001C107.213 57.0001 108.855 58.6461 108.855 60.6766C108.855 62.707 107.213 64.353 105.188 64.353L75.3329 64.353L75.3329 121.601C75.3329 123.631 73.6914 125.277 71.6665 125.277C69.6415 125.277 68 123.631 68 121.601L68 62.7774C68 59.5867 70.5796 57.0001 73.7616 57.0001L105.188 57.0001Z" fill="url(#paint3_linear_4258_9063)"/>
</g>
<defs>
<linearGradient id="paint0_linear_4258_9063" x1="172.572" y1="60.6765" x2="172.572" y2="87.9874" gradientUnits="userSpaceOnUse">
<stop stop-color="#375A9F"/>
<stop offset="1" stop-color="#D87B7B"/>
</linearGradient>
<linearGradient id="paint1_linear_4258_9063" x1="88.4273" y1="178.323" x2="88.4273" y2="146.81" gradientUnits="userSpaceOnUse">
<stop stop-color="#375A9F"/>
<stop offset="1" stop-color="#D87B7B"/>
</linearGradient>
<linearGradient id="paint2_linear_4258_9063" x1="189.333" y1="147.336" x2="156.859" y2="147.336" gradientUnits="userSpaceOnUse">
<stop stop-color="#375A9F"/>
<stop offset="1" stop-color="#D87B7B"/>
</linearGradient>
<linearGradient id="paint3_linear_4258_9063" x1="71.6665" y1="91.1387" x2="105.188" y2="91.1387" gradientUnits="userSpaceOnUse">
<stop stop-color="#375A9F"/>
<stop offset="1" stop-color="#D87B7B"/>
</linearGradient>
<clipPath id="clip0_4258_9063">
<rect width="283" height="283" fill="white"/>
</clipPath>
</defs>
</svg>
